<?xml version="1.0" encoding="UTF-8"?>
<svg id="uuid-d640d1d8-16ed-4824-ae65-a6970e5401e6" data-name="Capa 2" xmlns="http://www.w3.org/2000/svg" viewBox="0 0 609.5354 53.5522">
  <g id="uuid-56cfa8cd-e8d3-419d-8a85-180f137ea7db" data-name="Capa 1">
    <g>
      <g>
        <path d="M326.8655,17.5601c1.0547-1.1035,2.3398-1.9438,3.8516-2.52s3.2041-.8638,5.0762-.8638c2.2559,0,4.3076.4678,6.1562,1.4038,1.8467.936,3.5635,2.3164,5.1475,4.1401l10.8721-9.5762c-2.5449-3.1196-5.7725-5.519-9.6836-7.2002-3.9131-1.6792-8.3643-2.5195-13.3564-2.5195-4.1758,0-8.0039.6367-11.4834,1.9077-3.4814,1.2725-6.4932,3.085-9.0361,5.436-2.5449,2.3525-4.5127,5.1367-5.9043,8.3521-1.3926,3.2163-2.0879,6.7681-2.0879,10.6558s.6953,7.4409,2.0879,10.6558c1.3916,3.2168,3.3477,6.001,5.8682,8.3525,2.5195,2.3516,5.4951,4.1641,8.9277,5.4355,3.4316,1.2715,7.1875,1.9082,11.2686,1.9082,3.6953,0,7.5107-.5527,11.4473-1.6562,3.9355-1.1035,7.4395-2.6875,10.5127-4.752v-21.3115h-14.7607v12.7582c-.1915.0772-.3872.1707-.5762.2379-1.8242.6475-3.6963.9717-5.6152.9717-1.8252,0-3.4688-.2998-4.9326-.9004-1.4648-.5996-2.7246-1.4512-3.7793-2.5557-1.0566-1.1035-1.8721-2.4355-2.4482-3.9956-.5762-1.5596-.8643-3.2764-.8643-5.1484,0-1.9673.2881-3.7192.8643-5.2559.5762-1.5356,1.3916-2.855,2.4482-3.96Z" style="fill: #fff; stroke-width: 0px;"/>
        <path d="M380.3616,1.5762l-22.0332,50.3994h17.2812l3.3762-8.7842h19.1672l3.3766,8.7842h17.5684L397.0647,1.5762h-16.7031ZM383.6899,30.9521l4.8789-12.694,4.8795,12.694h-9.7584Z" style="fill: #fff; stroke-width: 0px;"/>
        <path d="M466.2571,30.6279c1.8721-2.8076,2.8076-6.1558,2.8076-10.0439s-.9355-7.2598-2.8076-10.1157c-1.8721-2.8555-4.5254-5.0513-7.9561-6.5884-3.4326-1.5356-7.501-2.3037-12.2041-2.3037h-24.2646v50.3994h16.9922v-12.6719h4.6287l8.5481,12.6719h18.1436l-10.5777-15.5009c2.824-1.4453,5.0551-3.3948,6.69-5.8467ZM450.2366,16.2642c1.127,1.0562,1.6924,2.4961,1.6924,4.3198,0,1.8247-.5654,3.2646-1.6924,4.3203-1.1279,1.0562-2.8682,1.584-5.2197,1.584h-6.1924v-11.8081h6.1924c2.3516,0,4.0918.5288,5.2197,1.584Z" style="fill: #fff; stroke-width: 0px;"/>
        <path d="M493.8684,17.5601c1.0312-1.1035,2.2676-1.9438,3.708-2.52s3.0479-.8638,4.8242-.8638c2.2559,0,4.2842.5161,6.084,1.5479,1.7998,1.0327,3.4434,2.4839,4.9316,4.356l10.7285-9.5762c-2.4971-3.2637-5.6523-5.7598-9.4688-7.4878-3.8154-1.728-8.1963-2.5918-13.1396-2.5918-4.0322,0-7.7646.6367-11.1963,1.9077-3.4316,1.2725-6.4072,3.085-8.9277,5.436-2.5195,2.3525-4.4766,5.1367-5.8682,8.3521-1.3926,3.2163-2.0879,6.7681-2.0879,10.6558s.6953,7.4409,2.0879,10.6558c1.3916,3.2168,3.3486,6.001,5.8682,8.3525,2.5205,2.3516,5.4961,4.1641,8.9277,5.4355s7.1641,1.9082,11.1963,1.9082c4.9434,0,9.3242-.877,13.1396-2.6279,3.8164-1.752,6.9717-4.2354,9.4688-7.4521l-10.7285-9.5762c-1.4883,1.8721-3.1318,3.3242-4.9316,4.3564s-3.8281,1.5479-6.084,1.5479c-1.7764,0-3.3838-.2881-4.8242-.8643s-2.6768-1.415-3.708-2.5195c-1.0332-1.1035-1.8359-2.4355-2.4121-3.9961-.5762-1.5591-.8643-3.2998-.8643-5.2202,0-1.9189.2881-3.6597.8643-5.2197.5762-1.5596,1.3789-2.8911,2.4121-3.9961Z" style="fill: #fff; stroke-width: 0px;"/>
        <rect x="529.0393" y="1.5762" width="16.9922" height="50.3994" style="fill: #fff; stroke-width: 0px;"/>
        <path d="M591.967,51.9756h17.5684l-22.0322-50.3994h-16.7041l-22.0322,50.3994h17.2803l3.3762-8.7842h19.1674l3.3763,8.7842ZM574.1274,30.9521l4.8793-12.695,4.8796,12.695h-9.7589Z" style="fill: #fff; stroke-width: 0px;"/>
      </g>
      <g>
        <path d="M6.7877,13.8159h17.1357v19.1523c0,4.1758-1.8247,6.2637-5.4717,6.2637-1.3931,0-2.7363-.4199-4.0322-1.2598s-2.6167-2.0762-3.96-3.709L1.3155,45.064c2.1118,2.4473,4.752,4.3086,7.9199,5.5801s6.7197,1.9082,10.6562,1.9082c6.7681,0,11.9272-1.7031,15.48-5.1123,3.5513-3.4072,5.3276-8.5674,5.3276-15.4795V1H6.7877v12.8159Z" style="fill: none; stroke: #fff; stroke-miterlimit: 10; stroke-width: 2px;"/>
        <path d="M80.4425,28.2158c0,3.8403-.6836,6.5649-2.0518,8.1724-1.3682,1.6084-3.2524,2.4121-5.6519,2.4121-2.3525,0-4.2246-.8037-5.6162-2.4121-1.3926-1.6074-2.0879-4.332-2.0879-8.1724V1h-16.9922v27.7197c0,7.5366,2.1602,13.3921,6.48,17.5688,4.3203,4.1758,10.3433,6.2637,18.0723,6.2637s13.752-2.0879,18.0718-6.2637c4.3203-4.1768,6.48-10.0322,6.48-17.5688V1h-16.7041v27.2158Z" style="fill: none; stroke: #fff; stroke-miterlimit: 10; stroke-width: 2px;"/>
        <polygon points="121.9146 1 104.9224 1 104.9224 51.3999 144.6666 51.3999 144.6666 38.2241 121.9146 38.2241 121.9146 1" style="fill: none; stroke: #fff; stroke-miterlimit: 10; stroke-width: 2px;"/>
        <rect x="149.3458" y="1" width="16.9922" height="50.3999" style="fill: none; stroke: #fff; stroke-miterlimit: 10; stroke-width: 2px;"/>
        <path d="M191.105,1l-22.0322,50.3999h17.2803l3.3762-8.7842h19.1675l3.3762,8.7842h17.5679L207.8092,1h-16.7041ZM194.4337,30.376l4.8793-12.6949,4.8793,12.6949h-9.7587Z" style="fill: none; stroke: #fff; stroke-miterlimit: 10; stroke-width: 2px;"/>
        <polygon points="265.6973 1 265.6973 23.9178 246.545 1 232.5772 1 232.5772 51.3999 249.1373 51.3999 249.1373 28.4822 268.2891 51.3999 282.2574 51.3999 282.2574 1 265.6973 1" style="fill: none; stroke: #fff; stroke-miterlimit: 10; stroke-width: 2px;"/>
      </g>
    </g>
  </g>
</svg>