<?xml version="1.0" encoding="UTF-8"?>
<svg id="Capa_1" data-name="Capa 1" xmlns="http://www.w3.org/2000/svg" viewBox="0 0 118.0756835938 116.6622862816">
  <defs>
    <style>
      .cls-1 {
        fill: #f5f5f5;
      }

      .cls-2 {
        fill: #0ac5a8;
      }
    </style>
  </defs>
  <rect class="cls-2" width="118.0756835938" height="116.6622862816" rx="12" ry="12"/>
  <path class="cls-1" d="m17.6216787777,27.2036699796v46.0488560427c0,3.2740425276,2.686291501,5.9281784055,6,5.9281784055h6.8053886819c.5522847498,0,1,.4423559796,1,.9880297342v14.2282835865c0,.8046638259.9214492839,1.2718739118,1.5830863455.8026854222l22.3281960736-15.8336544309c.1699555958-.1205210741.3738871032-.185344312.5830863455-.185344312h38.5325685917c3.313708499,0,6-2.6541358778,6-5.9281784055V27.2036699796c0-3.2740425276-2.686291501-5.9281784055-6-5.9281784055H23.6216787777c-3.313708499,0-6,2.6541358778-6,5.9281784055Zm38.6656649712,20.254595209c0,4.8080125019-.5818354465,8.3095034212-1.7455103749,10.4522045582-1.4058493772,2.6343475313-3.5225727184,4.6541250566-6.4318931276,6.1396114472-.456067115.2328658921-1.0218883857.0652341204-1.2939752106-.364887346l-1.3093934589-2.0699210069c-.3049345615-.4820479669-.1338478512-1.1200256967.3742017623-1.3868037735,1.524401254-.8004667733,2.6760409379-1.8666326474,3.424536981-3.2586953387.9520973019-1.6200909091,1.4810393506-4.02409716,1.5868261461-7.1074983021h-3.1307362583c-1.1045694997,0-2-.8847119593-2-1.9760594685v-7.3362671692c0-1.0913475092.8954305003-1.9760594685,2-1.9760594685h6.5259466788c1.1045698502,0,2.0000004957.8847124998,2,1.9760603553l-.0000031379,6.9083155127Zm16.8732521609,0c0,4.8080125019-.5818354465,8.3095034212-1.7455103749,10.4522045582-1.4058468664,2.6343428265-3.5225651576,4.6541178421-6.4318489169,6.1396223499-.4560826118.2328795785-1.0219269155.0652431599-1.2940241313-.3648953401l-1.3093921288-2.0699218283c-.3049292903-.4820403149-.1338480254-1.1200082998.3741920043-1.3867844852,1.5244017847-.8004764772,2.6760499788-1.8666464032,3.4245501189-3.2587167141.9520973019-1.6200909091,1.4810393506-4.02409716,1.5868261461-7.1074983021h-3.1307362583c-1.1045694997,0-2-.8847119593-2-1.9760594685v-7.3362671692c0-1.0913475092.8954305003-1.9760594685,2-1.9760594685h6.5259466788c1.1045698502,0,2.0000004957.8847124998,2,1.9760603553l-.0000031379,6.9083155127Z"/>
</svg>